<mxfile host="app.diagrams.net" modified="2022-05-11T22:53:35.736Z" agent="5.0 (Windows NT 10.0; Win64; x64) AppleWebKit/537.36 (KHTML, like Gecko) Chrome/99.0.4844.84 Safari/537.36 OPR/85.0.4341.72" etag="oiDLn0KLDzkG0ccavmmt" version="18.0.3" type="github">
  <diagram id="C5RBs43oDa-KdzZeNtuy" name="Page-1">
    <mxGraphModel dx="827" dy="483" grid="1" gridSize="10" guides="1" tooltips="1" connect="1" arrows="1" fold="1" page="1" pageScale="1" pageWidth="827" pageHeight="1169" math="0" shadow="0">
      <root>
        <mxCell id="WIyWlLk6GJQsqaUBKTNV-0" />
        <mxCell id="WIyWlLk6GJQsqaUBKTNV-1" parent="WIyWlLk6GJQsqaUBKTNV-0" />
        <mxCell id="IK8AEmKTrprAsrEwXX1D-0" value="" style="shape=umlLifeline;participant=umlActor;perimeter=lifelinePerimeter;whiteSpace=wrap;html=1;container=1;collapsible=0;recursiveResize=0;verticalAlign=top;spacingTop=36;outlineConnect=0;" vertex="1" parent="WIyWlLk6GJQsqaUBKTNV-1">
          <mxGeometry x="70" y="120" width="20" height="300" as="geometry" />
        </mxCell>
        <mxCell id="IK8AEmKTrprAsrEwXX1D-23" value="" style="html=1;points=[];perimeter=orthogonalPerimeter;fontSize=10;" vertex="1" parent="IK8AEmKTrprAsrEwXX1D-0">
          <mxGeometry x="5" y="190" width="10" height="50" as="geometry" />
        </mxCell>
        <mxCell id="IK8AEmKTrprAsrEwXX1D-24" value="" style="html=1;points=[];perimeter=orthogonalPerimeter;fontSize=10;" vertex="1" parent="IK8AEmKTrprAsrEwXX1D-0">
          <mxGeometry x="5" y="60" width="10" height="50" as="geometry" />
        </mxCell>
        <mxCell id="IK8AEmKTrprAsrEwXX1D-1" value="" style="shape=umlLifeline;participant=umlBoundary;perimeter=lifelinePerimeter;whiteSpace=wrap;html=1;container=1;collapsible=0;recursiveResize=0;verticalAlign=top;spacingTop=36;outlineConnect=0;" vertex="1" parent="WIyWlLk6GJQsqaUBKTNV-1">
          <mxGeometry x="190" y="120" width="50" height="300" as="geometry" />
        </mxCell>
        <mxCell id="IK8AEmKTrprAsrEwXX1D-21" value="" style="html=1;points=[];perimeter=orthogonalPerimeter;fontSize=10;" vertex="1" parent="IK8AEmKTrprAsrEwXX1D-1">
          <mxGeometry x="20" y="190" width="10" height="50" as="geometry" />
        </mxCell>
        <mxCell id="IK8AEmKTrprAsrEwXX1D-22" value="pesquisa&lt;br&gt;mensalidades" style="html=1;verticalAlign=bottom;startArrow=oval;endArrow=block;startSize=8;rounded=0;fontSize=10;" edge="1" target="IK8AEmKTrprAsrEwXX1D-21" parent="IK8AEmKTrprAsrEwXX1D-1">
          <mxGeometry relative="1" as="geometry">
            <mxPoint x="-40" y="190" as="sourcePoint" />
          </mxGeometry>
        </mxCell>
        <mxCell id="IK8AEmKTrprAsrEwXX1D-2" value="" style="shape=umlLifeline;participant=umlActor;perimeter=lifelinePerimeter;whiteSpace=wrap;html=1;container=1;collapsible=0;recursiveResize=0;verticalAlign=top;spacingTop=36;outlineConnect=0;" vertex="1" parent="WIyWlLk6GJQsqaUBKTNV-1">
          <mxGeometry x="140" y="120" width="20" height="300" as="geometry" />
        </mxCell>
        <mxCell id="IK8AEmKTrprAsrEwXX1D-3" value="" style="shape=umlLifeline;participant=umlEntity;perimeter=lifelinePerimeter;whiteSpace=wrap;html=1;container=1;collapsible=0;recursiveResize=0;verticalAlign=top;spacingTop=36;outlineConnect=0;" vertex="1" parent="WIyWlLk6GJQsqaUBKTNV-1">
          <mxGeometry x="350" y="120" width="40" height="300" as="geometry" />
        </mxCell>
        <mxCell id="IK8AEmKTrprAsrEwXX1D-4" value="" style="shape=umlLifeline;participant=umlEntity;perimeter=lifelinePerimeter;whiteSpace=wrap;html=1;container=1;collapsible=0;recursiveResize=0;verticalAlign=top;spacingTop=36;outlineConnect=0;" vertex="1" parent="WIyWlLk6GJQsqaUBKTNV-1">
          <mxGeometry x="430" y="120" width="40" height="300" as="geometry" />
        </mxCell>
        <mxCell id="IK8AEmKTrprAsrEwXX1D-28" value="" style="html=1;points=[];perimeter=orthogonalPerimeter;fontSize=10;" vertex="1" parent="IK8AEmKTrprAsrEwXX1D-4">
          <mxGeometry x="14" y="190" width="10" height="50" as="geometry" />
        </mxCell>
        <mxCell id="IK8AEmKTrprAsrEwXX1D-5" value="" style="shape=umlLifeline;participant=umlControl;perimeter=lifelinePerimeter;whiteSpace=wrap;html=1;container=1;collapsible=0;recursiveResize=0;verticalAlign=top;spacingTop=36;outlineConnect=0;" vertex="1" parent="WIyWlLk6GJQsqaUBKTNV-1">
          <mxGeometry x="280" y="120" width="40" height="300" as="geometry" />
        </mxCell>
        <mxCell id="IK8AEmKTrprAsrEwXX1D-25" value="" style="html=1;points=[];perimeter=orthogonalPerimeter;fontSize=10;" vertex="1" parent="IK8AEmKTrprAsrEwXX1D-5">
          <mxGeometry x="10" y="190" width="10" height="50" as="geometry" />
        </mxCell>
        <mxCell id="IK8AEmKTrprAsrEwXX1D-26" value="busca&lt;br&gt;mensalidade" style="html=1;verticalAlign=bottom;endArrow=block;entryX=0;entryY=0;rounded=0;fontSize=10;" edge="1" target="IK8AEmKTrprAsrEwXX1D-25" parent="IK8AEmKTrprAsrEwXX1D-5">
          <mxGeometry relative="1" as="geometry">
            <mxPoint x="-70" y="190" as="sourcePoint" />
          </mxGeometry>
        </mxCell>
        <mxCell id="IK8AEmKTrprAsrEwXX1D-6" value="" style="html=1;points=[];perimeter=orthogonalPerimeter;" vertex="1" parent="WIyWlLk6GJQsqaUBKTNV-1">
          <mxGeometry x="140" y="180" width="10" height="40" as="geometry" />
        </mxCell>
        <mxCell id="IK8AEmKTrprAsrEwXX1D-7" value="&lt;font style=&quot;font-size: 10px;&quot;&gt;descobrir&lt;br&gt;Mensalidade&lt;/font&gt;" style="html=1;verticalAlign=bottom;startArrow=oval;endArrow=block;startSize=8;rounded=0;" edge="1" target="IK8AEmKTrprAsrEwXX1D-6" parent="WIyWlLk6GJQsqaUBKTNV-1">
          <mxGeometry relative="1" as="geometry">
            <mxPoint x="80" y="180" as="sourcePoint" />
          </mxGeometry>
        </mxCell>
        <mxCell id="IK8AEmKTrprAsrEwXX1D-8" value="" style="html=1;points=[];perimeter=orthogonalPerimeter;" vertex="1" parent="WIyWlLk6GJQsqaUBKTNV-1">
          <mxGeometry x="210" y="180" width="10" height="50" as="geometry" />
        </mxCell>
        <mxCell id="IK8AEmKTrprAsrEwXX1D-9" value="Pesquisar&lt;br&gt;sócio" style="html=1;verticalAlign=bottom;startArrow=oval;endArrow=block;startSize=8;rounded=0;" edge="1" target="IK8AEmKTrprAsrEwXX1D-8" parent="WIyWlLk6GJQsqaUBKTNV-1">
          <mxGeometry relative="1" as="geometry">
            <mxPoint x="150" y="180" as="sourcePoint" />
          </mxGeometry>
        </mxCell>
        <mxCell id="IK8AEmKTrprAsrEwXX1D-10" value="" style="html=1;points=[];perimeter=orthogonalPerimeter;" vertex="1" parent="WIyWlLk6GJQsqaUBKTNV-1">
          <mxGeometry x="290" y="180" width="10" height="60" as="geometry" />
        </mxCell>
        <mxCell id="IK8AEmKTrprAsrEwXX1D-11" value="Buscar&lt;br&gt;Sócio" style="html=1;verticalAlign=bottom;endArrow=block;entryX=0;entryY=0;rounded=0;" edge="1" target="IK8AEmKTrprAsrEwXX1D-10" parent="WIyWlLk6GJQsqaUBKTNV-1">
          <mxGeometry relative="1" as="geometry">
            <mxPoint x="220" y="180" as="sourcePoint" />
          </mxGeometry>
        </mxCell>
        <mxCell id="IK8AEmKTrprAsrEwXX1D-12" value="return" style="html=1;verticalAlign=bottom;endArrow=open;dashed=1;endSize=8;exitX=0;exitY=0.95;rounded=0;" edge="1" source="IK8AEmKTrprAsrEwXX1D-10" parent="WIyWlLk6GJQsqaUBKTNV-1" target="IK8AEmKTrprAsrEwXX1D-1">
          <mxGeometry relative="1" as="geometry">
            <mxPoint x="220" y="256" as="targetPoint" />
          </mxGeometry>
        </mxCell>
        <mxCell id="IK8AEmKTrprAsrEwXX1D-15" value="getsocio()" style="html=1;verticalAlign=bottom;endArrow=block;entryX=0;entryY=0;rounded=0;" edge="1" parent="WIyWlLk6GJQsqaUBKTNV-1">
          <mxGeometry relative="1" as="geometry">
            <mxPoint x="300" y="180" as="sourcePoint" />
            <mxPoint x="370" y="180.0000000000001" as="targetPoint" />
          </mxGeometry>
        </mxCell>
        <mxCell id="IK8AEmKTrprAsrEwXX1D-16" value="socio" style="html=1;verticalAlign=bottom;endArrow=open;dashed=1;endSize=8;exitX=0;exitY=0.95;rounded=0;" edge="1" parent="WIyWlLk6GJQsqaUBKTNV-1">
          <mxGeometry relative="1" as="geometry">
            <mxPoint x="300" y="220" as="targetPoint" />
            <mxPoint x="370" y="220" as="sourcePoint" />
          </mxGeometry>
        </mxCell>
        <mxCell id="IK8AEmKTrprAsrEwXX1D-17" value="" style="html=1;points=[];perimeter=orthogonalPerimeter;fontSize=10;" vertex="1" parent="WIyWlLk6GJQsqaUBKTNV-1">
          <mxGeometry x="140" y="310" width="10" height="50" as="geometry" />
        </mxCell>
        <mxCell id="IK8AEmKTrprAsrEwXX1D-18" value="" style="html=1;verticalAlign=bottom;startArrow=oval;endArrow=block;startSize=8;rounded=0;fontSize=10;" edge="1" target="IK8AEmKTrprAsrEwXX1D-17" parent="WIyWlLk6GJQsqaUBKTNV-1">
          <mxGeometry relative="1" as="geometry">
            <mxPoint x="80" y="310" as="sourcePoint" />
          </mxGeometry>
        </mxCell>
        <mxCell id="IK8AEmKTrprAsrEwXX1D-27" value="return" style="html=1;verticalAlign=bottom;endArrow=open;dashed=1;endSize=8;exitX=0;exitY=0.95;rounded=0;fontSize=10;" edge="1" source="IK8AEmKTrprAsrEwXX1D-25" parent="WIyWlLk6GJQsqaUBKTNV-1" target="IK8AEmKTrprAsrEwXX1D-1">
          <mxGeometry relative="1" as="geometry">
            <mxPoint x="210" y="386" as="targetPoint" />
          </mxGeometry>
        </mxCell>
        <mxCell id="IK8AEmKTrprAsrEwXX1D-29" value="getListMensalidade" style="html=1;verticalAlign=bottom;endArrow=block;entryX=0;entryY=0;rounded=0;fontSize=10;" edge="1" target="IK8AEmKTrprAsrEwXX1D-28" parent="WIyWlLk6GJQsqaUBKTNV-1" source="IK8AEmKTrprAsrEwXX1D-5">
          <mxGeometry relative="1" as="geometry">
            <mxPoint x="374" y="300" as="sourcePoint" />
          </mxGeometry>
        </mxCell>
        <mxCell id="IK8AEmKTrprAsrEwXX1D-30" value="valor da Mensallidade" style="html=1;verticalAlign=bottom;endArrow=open;dashed=1;endSize=8;exitX=0;exitY=0.95;rounded=0;fontSize=10;" edge="1" source="IK8AEmKTrprAsrEwXX1D-28" parent="WIyWlLk6GJQsqaUBKTNV-1" target="IK8AEmKTrprAsrEwXX1D-5">
          <mxGeometry relative="1" as="geometry">
            <mxPoint x="374" y="376" as="targetPoint" />
          </mxGeometry>
        </mxCell>
        <mxCell id="IK8AEmKTrprAsrEwXX1D-32" value="juros" style="edgeStyle=orthogonalEdgeStyle;html=1;align=left;spacingLeft=2;endArrow=block;rounded=0;entryX=1;entryY=0;fontSize=10;exitX=0.6;exitY=0.663;exitDx=0;exitDy=0;exitPerimeter=0;" edge="1" parent="WIyWlLk6GJQsqaUBKTNV-1" source="IK8AEmKTrprAsrEwXX1D-4">
          <mxGeometry relative="1" as="geometry">
            <mxPoint x="460" y="320" as="sourcePoint" />
            <Array as="points">
              <mxPoint x="454" y="320" />
              <mxPoint x="480" y="320" />
              <mxPoint x="480" y="340" />
            </Array>
            <mxPoint x="455" y="340" as="targetPoint" />
          </mxGeometry>
        </mxCell>
        <mxCell id="IK8AEmKTrprAsrEwXX1D-33" value="loop" style="shape=umlFrame;whiteSpace=wrap;html=1;fontSize=10;" vertex="1" parent="WIyWlLk6GJQsqaUBKTNV-1">
          <mxGeometry x="270" y="270" width="250" height="120" as="geometry" />
        </mxCell>
      </root>
    </mxGraphModel>
  </diagram>
</mxfile>
